<?xml version="1.0" encoding="utf-8" ?><svg xmlns="http://www.w3.org/2000/svg" xmlns:xlink="http://www.w3.org/1999/xlink" width="446" height="606" viewBox="289 205 446 606"><path fill="#ffffff" d="M502.869 351.22C542.888 348.975 582.243 362.167 612.824 388.076C638.088 409.257 654.963 431.797 666.329 463.006C669.94 472.921 672.843 483.311 673.768 493.879C659.874 490.166 647.717 488.901 633.854 486.399L634.014 422.823C626.421 422.637 618.263 422.811 610.627 422.841L610.676 483.722L578.997 481.7L578.641 422.517C570.968 422.543 563.083 422.27 555.395 422.089L555.343 480.454C546.359 480.614 533.259 479.683 523.764 479.355C523.914 467.821 523.992 456.285 523.999 444.75L524.073 422.461L500.63 422.502L500.551 478.541C490.801 478.899 479.327 478.658 469.357 478.739L469.245 422.535L445.475 422.48L445.568 479.247L414.609 478.972L414.501 422.887C406.794 422.448 398.272 422.57 390.49 422.535L390.235 479.026C378.13 478.896 366.024 478.866 353.919 478.935C361.23 451.26 376.533 424.438 395.612 403.258C423.002 372.314 461.611 353.582 502.869 351.22Z"/><path fill="#ffffff" d="M299.27 495.526L423.53 495.841L423.498 512.927L316.768 512.981C316.254 521.688 316.721 535.835 316.757 544.89L316.945 608.182L316.958 793.39L523.989 793.544L523.877 680.75C523.958 657.06 523.54 633.128 523.877 609.487L541.656 609.573C542.522 630.65 541.815 656.364 541.854 677.814L541.888 810.47C461.664 811.497 379.868 810.086 299.466 810.162L299.269 588.568C299.307 557.969 298.472 526.021 299.27 495.526Z"/><path fill="#ffffff" d="M565.406 681.592L604.324 681.721L604.446 810.629C591.725 810.924 578.185 810.686 565.405 810.66C565.145 767.638 565.145 724.614 565.406 681.592Z"/><path fill="#ffffff" d="M687.076 681.657C699.579 681.941 712.535 681.638 725.071 681.507C724.638 724.463 725.453 767.418 724.77 810.412C713.484 811.039 698.588 810.658 687.174 810.586L687.076 681.657Z"/><path fill="#ffffff" d="M626.552 681.691L664.053 681.719C664.007 724.366 663.327 767.921 663.706 810.506C651.575 810.877 638.937 810.674 626.768 810.646C626.677 767.882 626.116 724.416 626.552 681.691Z"/><path fill="#004b8f" d="M441.031 495.734C442.291 496.653 446.415 501.066 447.809 502.479L462.556 517.338C479.845 534.469 496.945 551.789 513.853 569.295C520.827 576.532 531.164 586.348 537.028 593.969C505.071 593.749 472.906 594.183 440.976 593.719L441.031 495.734Z"/><path fill="#ffffff" d="M507.908 264.664C508.851 264.554 509.8 264.493 510.749 264.48C519.615 264.315 527.914 266.672 534.256 273.138C545.514 284.613 543.546 299.421 543.529 314.184L543.474 342.508C535.313 340.616 524.097 340.134 515.625 339.684C503.762 339.244 492.09 340.865 480.459 342.975L480.41 310.08C480.4 304.16 480.081 295.007 481.142 289.507C481.975 284.996 483.774 280.72 486.415 276.97C491.706 269.452 499.124 266.129 507.908 264.664Z"/><path fill="#ffffff" d="M462.028 491.149C474.207 490.78 490.284 491.44 502.883 491.498C526.267 491.626 549.646 492.247 573.004 493.36C610.798 495.212 659.415 498.625 694.114 513.998C694.149 520.69 694.143 527.383 694.096 534.075C650.646 510.956 532.088 509.651 479.712 509.537C475.691 505.667 464.424 495.164 462.028 491.149Z"/><path fill="#ffffff" d="M565.444 614.209L725.278 650.177L725.283 655.868C703.78 655.465 682.273 655.35 660.768 655.521L565.195 655.523L565.444 614.209Z"/><path fill="#ffffff" d="M368.77 733.745C407.197 733.385 445.626 733.468 484.051 733.996L484.073 752.602L476.75 752.721C439.597 753.647 398.727 752.899 361.384 752.926C361.219 746.596 361.18 740.264 361.268 733.933L368.77 733.745Z"/><path fill="#ffffff" d="M361.046 686.083C401.557 685.548 443.333 685.889 483.89 686.102C483.942 692.267 484.039 698.415 483.855 704.577C443.04 704.705 401.88 705.177 361.093 704.836L361.046 686.083Z"/><path fill="#ffffff" d="M361.489 638.472C401.71 638.474 444.123 637.725 484.155 638.482L484.142 657.056L361.467 657.013L361.489 638.472Z"/><path fill="#ffffff" d="M618.036 532.996C625.238 533.873 632.697 534.51 639.938 535.21L639.577 604.736C635.049 604.38 623.04 601.373 617.996 600.219L618.036 532.996Z"/><path fill="#ffffff" d="M564.321 528.107C571.812 528.478 579.21 529.241 586.736 529.551C587.382 549.711 586.874 573.453 586.783 593.726C579.268 592.301 571.589 590.748 564.036 589.66C564.074 569.501 563.79 548.178 564.321 528.107Z"/><path fill="#ffffff" d="M670.476 541.794C677.375 543.612 684.172 545.8 690.836 548.347C691.365 569.945 690.965 593.396 690.956 615.139C684.083 613.874 677.246 612.413 670.456 610.757L670.476 541.794Z"/><path fill="#ffffff" d="M361.438 590.665C378.927 590.323 404.786 589.885 422.079 590.81C422.158 596.994 422.141 603.179 422.031 609.363L361.265 609.096C361.234 602.952 361.292 596.807 361.438 590.665Z"/><path fill="#ffffff" d="M503.695 215.449L519.991 215.469C520.11 228.646 520.087 241.823 519.924 254.999C514.56 254.982 509.196 255.026 503.832 255.133C503.611 241.906 503.565 228.677 503.695 215.449Z"/><path fill="#ffffff" d="M508.37 525.457C516.235 525.441 525.235 526.085 533.173 526.483C533.124 538.839 533.156 551.196 533.269 563.552C530.425 562.253 512.645 543.063 508.35 539.236C508.233 534.788 508.35 529.936 508.37 525.457Z"/></svg>
